/* XPM */
static const char * bannerCell_xpm[] = {
"16 16 6 1",
" 	c #16081F",
".	c #2D1D37",
"+	c #533566",
"@	c #784E93",
"#	c #9263AF",
"$	c #FFFFFF",
"###############@",
"##############@+",
"##@@@@@@@@@@@@++",
"##@@@@@@.@@@@@++",
"##@$$$$$$@@@@@++",
"##@@$$$$.@@@@@++",
"##@@@$$$.@@@@@++",
"##@@@@@$$@@@@@++",
"##@@@@@@.@@@@@++",
"##@@@@@@.@@@@@++",
"##@@@@  .  @@@++",
"##@@@  ...  @@++",
"##@@@ ..... @@++",
"##@@@@@@@@@@@@++",
"#@++++++++++++++",
"@+++++++++++++++"};
