/* XPM */
static const char * eightCell_xpm[] = {
"16 16 3 1",
" 	c #784E93",
".	c #919092",
"+	c #929292",
"                ",
"                ",
"                ",
"       ...      ",
"      .....     ",
"     ..   ..    ",
"     ..   ..    ",
"     ..   ..    ",
"      .....     ",
"     ..   ..    ",
"     .+   ..    ",
"     ..   ..    ",
"      .....     ",
"       ...      ",
"                ",
"                "};
