/* XPM */
static const char * fiveCell_xpm[] = {
"16 16 2 1",
" 	c #2F004E",
".	c #784E93",
"................",
"................",
"................",
".....       ....",
".....       ....",
".....   ........",
".....      .....",
"......      ....",
".........   ....",
".....  ..   ....",
".....       ....",
"......     .....",
"................",
"................",
"................",
"................"};
