/* XPM */
static const char * fourCell_xpm[] = {
"16 16 2 1",
" 	c #0A1146",
".	c #784E93",
"................",
"................",
"................",
"......  .  .....",
"......  .  .....",
".....   .  .....",
".....  ..  .....",
"....   ..  .....",
"....  ...  .....",
"...          ...",
"...          ...",
".........  .....",
".........  .....",
".........  .....",
"................",
"................"};
