/* XPM */
static const char * mineCell_xpm[] = {
"16 16 5 1",
" 	c #2D1D37",
".	c #533566",
"+	c #784E93",
"@	c #9263AF",
"#	c #FFFFFF",
"@@@@@@@@@@@@@@@+",
"@@@@@@@@@@@@@@+.",
"@@++++++++++++..",
"@@+++++  +++++..",
"@@++++#  #++++..",
"@@+++# ## #+++..",
"@@++#  ##  #++..",
"@@+  ##  ##  +..",
"@@+  ##  ##  +..",
"@@++#  ##  #++..",
"@@+++# ## #+++..",
"@@++++#  #++++..",
"@@+++++  +++++..",
"@@++++++++++++..",
"@+..............",
"+..............."};
