/* XPM */
static const char * sevenCell_xpm[] = {
"16 16 2 1",
" 	c #311818",
".	c #784E93",
"................",
"................",
"................",
"....        ....",
"....        ....",
".........   ....",
"........    ....",
".......    .....",
"......    ......",
"......   .......",
"......   .......",
"......   .......",
"......   .......",
"................",
"................",
"................"};
