/* XPM */
static const char * sixCell_xpm[] = {
"16 16 3 1",
" 	c #784E93",
".	c #59C092",
"+	c #58C392",
"                ",
"                ",
"                ",
"      .....     ",
"     .......    ",
"     ..   ..    ",
"     .+         ",
"     ......     ",
"     .......    ",
"     ..   ..    ",
"     ..   ..    ",
"     .......    ",
"      .....     ",
"                ",
"                ",
"                "};
