/* XPM */
static const char * threeCell_xpm[] = {
"16 16 2 1",
" 	c #AC2B19",
".	c #784E93",
"................",
"................",
"................",
"......    ......",
".....      .....",
"....   ..   ....",
".........   ....",
".......    .....",
".........   ....",
"....   ..   ....",
".....      .....",
"......    ......",
"................",
"................",
"................",
"................"};
