/* XPM */
static const char * twoCell_xpm[] = {
"16 16 2 1",
" 	c #1E3F24",
".	c #784E93",
"................",
"................",
"................",
"......    ......",
".....      .....",
".....  ..  .....",
".........  .....",
"........   .....",
".......   ......",
"......   .......",
".....      .....",
".....      .....",
"................",
"................",
"................",
"................"};
