/* XPM */
static const char * faceRestart_xpm[] = {
"80 80 205 2",
"  	c #3E2B33",
". 	c #3F2C34",
"+ 	c #412D36",
"@ 	c #422E37",
"# 	c #432F38",
"$ 	c #47333C",
"% 	c #48343D",
"& 	c #4A363F",
"* 	c #4B3740",
"= 	c #4C3840",
"- 	c #533467",
"; 	c #4E3942",
"> 	c #4E3A43",
", 	c #523E47",
"' 	c #BC1981",
") 	c #BF1A7C",
"! 	c #554049",
"~ 	c #58434C",
"{ 	c #BE2679",
"] 	c #5D4851",
"^ 	c #C22976",
"/ 	c #C32A77",
"( 	c #614C55",
"_ 	c #5E4F56",
": 	c #C62D74",
"< 	c #C72E75",
"[ 	c #615259",
"} 	c #62535A",
"| 	c #C73671",
"1 	c #794E92",
"2 	c #675860",
"3 	c #CA396E",
"4 	c #CB3A6F",
"5 	c #695A62",
"6 	c #CD3B6B",
"7 	c #C9406B",
"8 	c #6D5E65",
"9 	c #CB416B",
"0 	c #CC426C",
"a 	c #D04464",
"b 	c #CF4469",
"c 	c #D24666",
"d 	c #75666D",
"e 	c #CE4B66",
"f 	c #D65060",
"g 	c #7B6B73",
"h 	c #D75161",
"i 	c #9362B0",
"j 	c #D6575D",
"k 	c #807078",
"l 	c #D7585E",
"m 	c #82727A",
"n 	c #D9605C",
"o 	c #87777F",
"p 	c #CE5EA7",
"q 	c #DE6253",
"r 	c #847B81",
"s 	c #8A7A82",
"t 	c #DE6956",
"u 	c #898086",
"v 	c #DF6A51",
"w 	c #8C8181",
"x 	c #E16B52",
"y 	c #D368A9",
"z 	c #8B8288",
"A 	c #E26C53",
"B 	c #E46D4E",
"C 	c #8D848A",
"D 	c #E2724F",
"E 	c #E4734A",
"F 	c #91888E",
"G 	c #E5744B",
"H 	c #958B91",
"I 	c #E47947",
"J 	c #988E94",
"K 	c #E87C4A",
"L 	c #E97D44",
"M 	c #E97D4A",
"N 	c #9A9096",
"O 	c #EC8542",
"P 	c #ED8643",
"Q 	c #D983BB",
"R 	c #A1979D",
"S 	c #EF8845",
"T 	c #EF8D40",
"U 	c #A69CA3",
"V 	c #F18E3A",
"W 	c #F2903B",
"X 	c #DB8CC1",
"Y 	c #DC8DC2",
"Z 	c #ACA0A1",
"` 	c #DF8EBE",
" .	c #F7993A",
"..	c #B2A6A6",
"+.	c #B4A8A8",
"@.	c #B6AAAA",
"#.	c #F8A036",
"$.	c #FAA12E",
"%.	c #F9A137",
"&.	c #E19DC8",
"*.	c #B9ADAE",
"=.	c #F9A630",
"-.	c #FCA833",
";.	c #FDA92A",
">.	c #BDB2B9",
",.	c #FFAA2B",
"'.	c #FFAD2E",
").	c #BFB5BB",
"!.	c #FDAF2D",
"~.	c #FEB023",
"{.	c #BDB8B7",
"].	c #FEB02E",
"^.	c #FFB12F",
"/.	c #C2B8BE",
"(.	c #FFB231",
"_.	c #FFB33B",
":.	c #FDB53B",
"<.	c #FEB63C",
"[.	c #FFB73D",
"}.	c #C2BFC3",
"|.	c #FEB845",
"1.	c #FFB946",
"2.	c #C6C1C0",
"3.	c #FFBA47",
"4.	c #C8C3C2",
"5.	c #FDBD50",
"6.	c #FEBE51",
"7.	c #E9BBCC",
"8.	c #FFBF52",
"9.	c #CBC6C5",
"0.	c #FFC05A",
"a.	c #CAC8CC",
"b.	c #FFC263",
"c.	c #CEC9C7",
"d.	c #FDC563",
"e.	c #CECBCF",
"f.	c #FEC664",
"g.	c #FFC765",
"h.	c #FFC76C",
"i.	c #D0CDD2",
"j.	c #FFC86D",
"k.	c #D1CED3",
"l.	c #FFC96E",
"m.	c #FFC975",
"n.	c #D2CFD4",
"o.	c #FFCA76",
"p.	c #FECD76",
"q.	c #FECE7E",
"r.	c #D6D4D8",
"s.	c #FFCF7F",
"t.	c #EFCEDB",
"u.	c #FFD187",
"v.	c #FFD288",
"w.	c #DAD7DB",
"x.	c #FFD389",
"y.	c #F2D1DE",
"z.	c #FDD690",
"A.	c #F1D3E5",
"B.	c #FDD797",
"C.	c #E0DBDA",
"D.	c #FFD999",
"E.	c #E3DDDC",
"F.	c #FFDBA1",
"G.	c #E3E0E4",
"H.	c #FFDDA9",
"I.	c #FFDEAA",
"J.	c #E7E2E0",
"K.	c #FCE1B1",
"L.	c #FEE1AB",
"M.	c #FDE2B2",
"N.	c #FFE3B4",
"O.	c #FFE4B5",
"P.	c #FEE5BB",
"Q.	c #FFE8C4",
"R.	c #EFEAE8",
"S.	c #F1ECEA",
"T.	c #F2EDEC",
"U.	c #FDEDCE",
"V.	c #FCEFD5",
"W.	c #FDF0D6",
"X.	c #F9EFF5",
"Y.	c #F7F1F0",
"Z.	c #FEF1D7",
"`.	c #FDF1DD",
" +	c #FEF2DF",
".+	c #F8F3F1",
"++	c #F7F4F9",
"@+	c #FFF4E1",
"#+	c #FEF5E7",
"$+	c #FBF6F5",
"%+	c #FFF7E9",
"&+	c #FCF7F6",
"*+	c #FFF8EA",
"=+	c #FBF8FD",
"-+	c #FFF8F1",
";+	c #F8FAF7",
">+	c #FFF9F2",
",+	c #FFF9F8",
"'+	c #FFFAF3",
")+	c #FFFAF9",
"!+	c #FBFDFA",
"~+	c #FFFCFA",
"{+	c #FFFDFB",
"]+	c #FCFFFB",
"^+	c #FDFFFC",
"i i i i i i i i i i i i i i i i i i i i i i i i i i i i i i i i i i i i i i i i i i i i i i i i i i i i i i i i i i i i i i i i i i i i i i i i i i i i i i i i ",
"i i i i i i i i i i i i i i i i i i i i i i i i i i i i i i i i i i i i i i i i i i i i i i i i i i i i i i i i i i i i i i i i i i i i i i i i i i i i i i i - ",
"i i i i i i i i i i i i i i i i i i i i i i i i i i i i i i i i i i i i i i i i i i i i i i i i i i i i i i i i i i i i i i i i i i i i i i i i i i i i i i - - ",
"i i i i i i i i i i i i i i i i i i i i i i i i i i i i i i i i i i i i i i i i i i i i i i i i i i i i i i i i i i i i i i i i i i i i i i i i i i i i i - - - ",
"i i i i i i i i i i i i i i i i i i i i i i i i i i i i i i i i i i i i i i i i i i i i i i i i i i i i i i i i i i i i i i i i i i i i i i i i i i i i - - - - ",
"i i i i i 1 1 1 1 1 1 1 1 1 1 1 1 1 1 1 1 1 1 1 1 1 1 1 1 1 1 1 1 1 1 1 1 1 1 1 1 1 1 1 1 1 1 1 1 1 1 1 1 1 1 1 1 1 1 1 1 1 1 1 1 1 1 1 1 1 1 1 1 1 1 - - - - - ",
"i i i i i 1 1 1 1 1 1 1 1 1 1 1 1 1 1 1 1 1 1 1 1 1 1 1 1 1 1 1 1 1 1 1 1 1 1 1 1 1 1 1 1 1 1 1 1 1 1 1 1 1 1 1 1 1 1 1 1 1 1 1 1 1 1 1 1 1 1 1 1 1 1 - - - - - ",
"i i i i i 1 1 1 1 1 1 1 1 1 1 1 1 1 1 1 1 1 1 1 1 1 1 1 1 1 1 1 1 1 1 1 1 o s s s o 1 1 1 1 1 1 1 1 1 1 1 1 1 1 1 1 1 1 1 1 1 1 1 1 1 1 1 1 1 1 1 1 1 - - - - - ",
"i i i i i 1 1 1 1 1 1 1 1 1 1 1 1 1 1 1 1 1 1 1 1 1 1 1 1 1 s H M T %.].].].].].].].].].%.T M n s 1 1 1 1 1 1 1 1 1 1 1 1 1 1 1 1 1 1 1 1 1 1 1 1 1 1 - - - - - ",
"i i i i i 1 1 1 1 1 1 1 1 1 1 1 1 1 1 1 1 1 1 1 1 1 1 s K %.].].].].].].].].].].].].].].].].].].].-.M w 1 1 1 1 1 1 1 1 1 1 1 1 1 1 1 1 1 1 1 1 1 1 1 - - - - - ",
"i i i i i 1 1 1 1 1 1 1 1 1 1 1 1 1 1 1 1 1 1 1 1 t %.].].].].].].].].].].].].].].].].].].].].].].].].].%.t 1 1 1 1 1 1 1 1 1 1 1 1 1 1 1 1 1 1 1 1 1 - - - - - ",
"i i i i i 1 1 1 1 1 1 1 1 1 1 1 1 1 1 1 1 1 1 t -.].].].].].].].].].].].].].].].].].].].].].].].].].].].].].(.D 1 1 1 1 1 1 1 1 1 1 1 1 1 1 1 1 1 1 1 - - - - - ",
"i i i i i 1 1 1 1 1 1 1 1 1 1 1 1 1 1 1 1 w %.].].].].].].].].].].].].].].].].].].].].].].].].].].].].].].].].].-.n 1 1 1 1 1 1 1 1 1 1 1 1 1 1 1 1 1 - - - - - ",
"i i i i i 1 1 1 1 1 1 1 1 1 1 1 1 1 1 1 M ].].].].].].].].].].].].].].].].].].].].].].].].].].].].].].].].].].].].].S 1 1 1 1 1 1 1 1 1 1 1 1 1 1 1 1 - - - - - ",
"i i i i i 1 1 1 1 1 1 1 1 1 1 1 1 1 o  .].].].].].].].].].].].].].].].].].].].].].].].].].].].].].].].].].].].].].].].%.s 1 1 1 1 1 1 1 1 1 1 1 1 1 1 - - - - - ",
"i i i i i 1 1 1 1 1 1 1 1 1 1 1 1 s %.].].].].].].].].].].].].].].].].].].].].].].].].].].].].].].].].].].].].].].].].].-.s 1 1 1 1 1 1 1 1 1 1 1 1 1 - - - - - ",
"i i i i i 1 1 1 1 1 1 1 1 1 1 1 s -.].].].].].].(.g.u.B.x.l._.].].].].].].].].].].].].].].].].]._.h.u.B.v.j._.].].].].].].(.s 1 1 1 1 1 1 1 1 1 1 1 1 - - - - - ",
"i i i i i 1 1 1 1 1 1 1 1 1 1 1 %.].].].].].[.H.'+^+^+^+^+^+~+P.5.].].].].].].].].].].].].].|.K.,+^+^+^+^+^+~+N.3.].].].].].-.s 1 1 1 1 1 1 1 1 1 1 1 - - - - - ",
"i i i i i 1 1 1 1 1 1 1 1 1 1 T ].].].].].m.'+^+^+^+!+n.).4.S.^+{+z.].].].].].].].].].].].q.~+^+Y.9.).e.;+^+^+^+~+v.].].].].].%.1 1 1 1 1 1 1 1 1 1 1 - - - - - ",
"i i i i i 1 1 1 1 1 1 1 1 1 D ].].].].].v.^+^+^+!+R =       . g G.^+I.].].].].].].].].].B.^+R.o #       $ H .+^+^+^+F.].].].].].M 1 1 1 1 1 1 1 1 1 1 - - - - - ",
"i i i i i 1 1 1 1 1 1 1 1 s ].].].].].h.{+^+^+++8               & i.^+x.].].].].].].].m.^+E.!               ( R.^+^+^+s.].].].].].w 1 1 1 1 1 1 1 1 1 - - - - - ",
"i i i i i 1 1 1 1 1 1 1 1 T ].].].].(.#+^+^+^+m                   ; R.~+|.].].].].]._.*+;+]                   5 ^+^+^+'+[.].].].].%.1 1 1 1 1 1 1 1 1 - - - - - ",
"i i i i i 1 1 1 1 1 1 1 H ].].].].].u.^+^+^+k.                      z ^+H.].].].].].z.^+U                       >.^+^+^+D.].].].].].t 1 1 1 1 1 1 1 1 - - - - - ",
"i i i i i 1 1 1 1 1 1 1  .].].].].].U.^+^+^+w                       = !+-+^.].].].].Z.^+(                       d ^+^+^+@+].].].].]._.1 1 1 1 1 1 1 1 - - - - - ",
"i i i i i 1 1 1 1 1 1 w ].].].].].(.{+^+^+^+2                         G.^+0.].].].<.^+!+                        , ^+^+^+^+3.].].].].].H 1 1 1 1 1 1 1 - - - - - ",
"i i i i i 1 1 1 1 1 1 S ].].].].].3.^+^+^+^+[                         C.^+j.].].].6.^+++                        & ^+^+^+^+b.].].].].]. .1 1 1 1 1 1 1 - - - - - ",
"i i i i i 1 1 1 1 1 1 (.].].].].].6.^+^+^+^+g                       . .+^+p.].].].0.^+^+;                       [ ^+^+^+^+h.].].].].].].s 1 1 1 1 1 1 - - - - - ",
"i i i i i 1 1 1 1 1 H ].].].].].].<.^+^+^+^+@.                      8 ^+^+b.].].].1.^+^+o                       N ^+^+^+^+8.].].].].].].t 1 1 1 1 1 1 - - - - - ",
"i i i i i 1 1 1 1 1 S ].].].].].].].*+^+^+^+;+~                     c.^+^+|.].].].(.'+^+E.@                   & T.^+^+^+{+_.].].].].].].T 1 1 1 1 1 1 - - - - - ",
"i i i i i 1 1 1 1 1 %.].].].].].].].H.^+^+^+^+r.$                 J ^+^+U.].].].].].N.^+^++.                + 2.^+^+^+^+Q.].].].].].].].(.1 1 1 1 1 1 - - - - - ",
"i i i i i 1 1 1 1 o ].].].].].].].].0.^+^+^+^+^+w.(           $ Z ^+^+^+s.].].].].].b.^+^+^+>.;           ~ c.^+^+^+^+^+l.].].].].].].].].s 1 1 1 1 1 - - - - - ",
"i i i i i 1 1 1 1 w ].].].].].].].].].L.^+^+^+^+^+^+2.F k s ..T.^+^+^+W.^.].].].].].].P.^+^+^+.+*.w k C ).=+^+^+^+^+^+Q.].].].].].].].].].t 1 1 1 1 1 - - - - - ",
"i i i i i 1 1 1 1 t ].].].].].].].].].<. +^+^+^+^+'+ +V.`.-+^+^+^+^+>+6.].].].].].].].|.#+^+^+^+^+>+`.V.`.-+^+^+^+^+*+3.].].].].].].].].].M 1 1 1 1 1 - - - - - ",
"i i i i i 1 1 1 1 M ].].].].].].].].].].|.U.O.s.3.].].].].].[.m.L.Z.0.].].].].].].].].].3.W.N.q.|.].].].].].|.o.M.Z.6.].].].].].].].].].].S 1 1 1 1 1 - - - - - ",
"i i i i i 1 1 1 1 S ].].].].].].].].].].].].].].].].].].].].].].].].].].].].].].].].].].].].].].].].].].].].].].].].].].].].].].].].].].]. .1 1 1 1 1 - - - - - ",
"i i i i i 1 1 1 1 T ].].].].].].].].].].].].].].].].].].].].].].].].].].].].].].].].].].].].].].].].].].].].].].].].].].].].].].].].].].].%.1 1 1 1 1 - - - - - ",
"i i i i i 1 1 1 1  .].].].].].].].].].].].].].].].].].].].].].].].].].].].].].].].].].].].].].].].].].].].].].].].].].].].].].].].].].].].-.1 1 1 1 1 - - - - - ",
"i i i i i 1 1 1 1 %.].].].].].].].].].].].].].].].].].].].].].].].].].].].].].].].].].].].].].].].].].].].].].].].].].].].].].].].].].].].].1 1 1 1 1 - - - - - ",
"i i i i i 1 1 1 1 %.].].].].].].].].].].9 7 7.y.y.y.y.y.y.y.y.y.y.y.y.y.y.y.y.y.y.y.y.y.y.y.y.y.y.y.y.y.y.y.y.y.t.7 7 #.].].].].].].].].].].1 1 1 1 1 - - - - - ",
"i i i i i 1 1 1 1 %.].].].].].].].].].].{ ' A.^+^+^+^+^+^+^+^+^+^+^+^+^+^+^+^+^+^+^+^+^+^+^+^+^+^+^+^+^+^+^+^+^+X.' ' #.].].].].].].].].].-.1 1 1 1 1 - - - - - ",
"i i i i i 1 1 1 1  .].].].].].].].].].].: ' Q ^+^+^+^+^+^+^+^+^+^+^+^+^+^+^+^+^+^+^+^+^+^+^+^+^+^+^+^+^+^+^+^+^+&.' ) '.].].].].].].].].]._.1 1 1 1 1 - - - - - ",
"i i i i i 1 1 1 1 T ].].].].].].].].].].e ' ' p X ` ` ` ` ` ` ` ` ` ` ` ` ` ` ` ` ` ` ` ` ` ` ` ` ` ` ` ` ` X y ' ' | ].].].].].].].].].].%.1 1 1 1 1 - - - - - ",
"i i i i i 1 1 1 1 S ].].].].].].].].].].v ' ' ' ' ' ' ' ' ' ' ' ' ' ' ' ' ' ' ' ' ' ' ' ' ' ' ' ' ' ' ' ' ' ' ' ' ' l ].].].].].].].].].].T 1 1 1 1 1 - - - - - ",
"i i i i i 1 1 1 1 D ].].].].].].].].].].T ' ' ' ' ' ' ' ' ' ' ' ' ' ' ' ' ' ' ' ' ' ' ' ' ' ' ' ' ' ' ' ' ' ' ' ' ' K ].].].].].].].].].].S 1 1 1 1 1 - - - - - ",
"i i i i i 1 1 1 1 n ].].].].].].].].].].'.{ ' ' ' ' ' ' ' ' ' ' ' ' ' ' ' ' ' ' ' ' ' ' ' ' ' ' ' ' ' ' ' ' ' ' ' ' #.].].].].].].].].].].D 1 1 1 1 1 - - - - - ",
"i i i i i 1 1 1 1 s ].].].].].].].].].].].l ' ' ' ' ' ' ' ' ' ' ' ' ' ' ' ' ' ' ' ' ' ' ' ' ' ' ' ' ' ' ' ' ' ' ' b ].].].].].].].].].].].w 1 1 1 1 1 - - - - - ",
"i i i i i 1 1 1 1 1 (.].].].].].].].].].].T ' ' ' ' ' ' ' ' ' ' ' ' ' ' ' ' ' ' ' ' ' ' ' ' ' ' ' ' ' ' ' ' ' ' ' M ].].].].].].].].].].].o 1 1 1 1 1 - - - - - ",
"i i i i i 1 1 1 1 1  .].].].].].].].].].].].| ' ' ' ' ' ' ' ' ' ' ' ' ' ' ' ' ' ' ' ' ' ' ' ' ' ' ' ' ' ' ' ' ' ^ '.].].].].].].].].].].%.1 1 1 1 1 1 - - - - - ",
"i i i i i 1 1 1 1 1 D ].].].].].].].].].].].P ' ' ' ' ' ' ' ' ' ' ' ' ' ' ' ' ' ' ' ' ' ' ' ' ' ' ' ' ' ' ' ' ' G ].].].].].].].].].].].M 1 1 1 1 1 1 - - - - - ",
"i i i i i 1 1 1 1 1 s ].].].].].].].].].].].].b ' ' ' ' ' ' ' ' ' ' ' ' ' ' ' ' ' ' ' ' ' ' ' ' ' ' ' ' ' ' ' | '.].].].].].].].].].].].w 1 1 1 1 1 1 - - - - - ",
"i i i i i 1 1 1 1 1 1 %.].].].].].].].].].].]. .{ ' ' ' ' ' ' ' ' ' ' ' ' ' ' ' ' ' ' ' ' ' ' ' ' ' ' ' ' ' ) T ].].].].].].].].].].].-.1 1 1 1 1 1 1 - - - - - ",
"i i i i i 1 1 1 1 1 1 t ].].].].].].].].].].].].P ' ' ' ' ' ' ' ' ' ' ' ' ' ' ' ' ' ' ' ' ' ' ' ' ' ' ' ' ' G ].].].].].].].].].].].].M 1 1 1 1 1 1 1 - - - - - ",
"i i i i i 1 1 1 1 1 1 1 -.].].].].].].].].].].].].D ' ' ' ' ' ' ' ' ' ' ' ' ' ' ' ' ' ' ' ' ' ' ' ' ' ' ' n ].].].].].].].].].].].].].s 1 1 1 1 1 1 1 - - - - - ",
"i i i i i 1 1 1 1 1 1 1 M ].].].].].].].].].].].].].K { ' ' ' ' ' ' ' ' ' ' ' ' ' ' ' ' ' ' ' ' ' ' ' ' A ].].].].].].].].].].].].].S 1 1 1 1 1 1 1 1 - - - - - ",
"i i i i i 1 1 1 1 1 1 1 1 -.].].].].].].].].].].].].].T < ' ' ' ' ' ' ' ' ' ' ' ' ' ' ' ' ' ' ' ' ' / P ].].].].].].].].].].].].].].s 1 1 1 1 1 1 1 1 - - - - - ",
"i i i i i 1 1 1 1 1 1 1 1 t ].].].].].].].].].].].].].].'.x { ' ' ' ' ' ' ' ' ' ' ' ' ' ' ' ' ' { q -.].].].].].].].].].].].].].].M 1 1 1 1 1 1 1 1 1 - - - - - ",
"i i i i i 1 1 1 1 1 1 1 1 1  .].].].].].].].].].].].].].].].-.G 9 ' ' ' ' ' ' ' ' ' ' ' ' ' 3 D =.].].].].].].].].].].].].].].].%.1 1 1 1 1 1 1 1 1 1 - - - - - ",
"i i i i i 1 1 1 1 1 1 1 1 1 s (.].].].].].].].].].].].].].].].].].-.P v f e 9 3 9 e f t P =.].].].].].].].].].].].].].].].].].].s 1 1 1 1 1 1 1 1 1 1 - - - - - ",
"i i i i i 1 1 1 1 1 1 1 1 1 1 H ].].].].].].].].].].].].].].].].].].].].].].].].].].].].].].].].].].].].].].].].].].].].].].].D 1 1 1 1 1 1 1 1 1 1 1 - - - - - ",
"i i i i i 1 1 1 1 1 1 1 1 1 1 1 t ].].].].].].].].].].].].].].].].].].].].].].].].].].].].].].].].].].].].].].].].].].].].].M 1 1 1 1 1 1 1 1 1 1 1 1 - - - - - ",
"i i i i i 1 1 1 1 1 1 1 1 1 1 1 1 K ].].].].].].].].].].].].].].].].].].].].].].].].].].].].].].].].].].].].].].].].].].].S 1 1 1 1 1 1 1 1 1 1 1 1 1 - - - - - ",
"i i i i i 1 1 1 1 1 1 1 1 1 1 1 1 1 t ].].].].].].].].].].].].].].].].].].].].].].].].].].].].].].].].].].].].].].].].].M 1 1 1 1 1 1 1 1 1 1 1 1 1 1 - - - - - ",
"i i i i i 1 1 1 1 1 1 1 1 1 1 1 1 1 1 H -.].].].].].].].].].].].].].].].].].].].].].].].].].].].].].].].].].].].].].(.t 1 1 1 1 1 1 1 1 1 1 1 1 1 1 1 - - - - - ",
"i i i i i 1 1 1 1 1 1 1 1 1 1 1 1 1 1 1 o T ].].].].].].].].].].].].].].].].].].].].].].].].].].].].].].].].].].].%.s 1 1 1 1 1 1 1 1 1 1 1 1 1 1 1 1 - - - - - ",
"i i i i i 1 1 1 1 1 1 1 1 1 1 1 1 1 1 1 1 1 n %.].].].].].].].].].].].].].].].].].].].].].].].].].].].].].].].-.t 1 1 1 1 1 1 1 1 1 1 1 1 1 1 1 1 1 1 - - - - - ",
"i i i i i 1 1 1 1 1 1 1 1 1 1 1 1 1 1 1 1 1 1 1 t %.].].].].].].].].].].].].].].].].].].].].].].].].].].].-.D 1 1 1 1 1 1 1 1 1 1 1 1 1 1 1 1 1 1 1 1 - - - - - ",
"i i i i i 1 1 1 1 1 1 1 1 1 1 1 1 1 1 1 1 1 1 1 1 1 H T ].].].].].].].].].].].].].].].].].].].].].].].T n 1 1 1 1 1 1 1 1 1 1 1 1 1 1 1 1 1 1 1 1 1 1 - - - - - ",
"i i i i i 1 1 1 1 1 1 1 1 1 1 1 1 1 1 1 1 1 1 1 1 1 1 1 1 H M %.].].].].].].].].].].].].].].].%.S n 1 1 1 1 1 1 1 1 1 1 1 1 1 1 1 1 1 1 1 1 1 1 1 1 1 - - - - - ",
"i i i i i 1 1 1 1 1 1 1 1 1 1 1 1 1 1 1 1 1 1 1 1 1 1 1 1 1 1 1 1 s H t D M S S S M K t H s 1 1 1 1 1 1 1 1 1 1 1 1 1 1 1 1 1 1 1 1 1 1 1 1 1 1 1 1 1 - - - - - ",
"i i i i i 1 1 1 1 1 1 1 1 1 1 1 1 1 1 1 1 1 1 1 1 1 1 1 1 1 1 1 1 1 1 1 1 1 1 1 1 1 1 1 1 1 1 1 1 1 1 1 1 1 1 1 1 1 1 1 1 1 1 1 1 1 1 1 1 1 1 1 1 1 1 - - - - - ",
"i i i i i 1 1 1 1 1 1 1 1 1 1 1 1 1 1 1 1 1 1 1 1 1 1 1 1 1 1 1 1 1 1 1 1 1 1 1 1 1 1 1 1 1 1 1 1 1 1 1 1 1 1 1 1 1 1 1 1 1 1 1 1 1 1 1 1 1 1 1 1 1 1 - - - - - ",
"i i i i i 1 1 1 1 1 1 1 1 1 1 1 1 1 1 1 1 1 1 1 1 1 1 1 1 1 1 1 1 1 1 1 1 1 1 1 1 1 1 1 1 1 1 1 1 1 1 1 1 1 1 1 1 1 1 1 1 1 1 1 1 1 1 1 1 1 1 1 1 1 1 - - - - - ",
"i i i i i 1 1 1 1 1 1 1 1 1 1 1 1 1 1 1 1 1 1 1 1 1 1 1 1 1 1 1 1 1 1 1 1 1 1 1 1 1 1 1 1 1 1 1 1 1 1 1 1 1 1 1 1 1 1 1 1 1 1 1 1 1 1 1 1 1 1 1 1 1 1 - - - - - ",
"i i i i i 1 1 1 1 1 1 1 1 1 1 1 1 1 1 1 1 1 1 1 1 1 1 1 1 1 1 1 1 1 1 1 1 1 1 1 1 1 1 1 1 1 1 1 1 1 1 1 1 1 1 1 1 1 1 1 1 1 1 1 1 1 1 1 1 1 1 1 1 1 1 - - - - - ",
"i i i i i 1 1 1 1 1 1 1 1 1 1 1 1 1 1 1 1 1 1 1 1 1 1 1 1 1 1 1 1 1 1 1 1 1 1 1 1 1 1 1 1 1 1 1 1 1 1 1 1 1 1 1 1 1 1 1 1 1 1 1 1 1 1 1 1 1 1 1 1 1 1 - - - - - ",
"i i i i i - - - - - - - - - - - - - - - - - - - - - - - - - - - - - - - - - - - - - - - - - - - - - - - - - - - - - - - - - - - - - - - - - - - - - - - - - - - ",
"i i i i - - - - - - - - - - - - - - - - - - - - - - - - - - - - - - - - - - - - - - - - - - - - - - - - - - - - - - - - - - - - - - - - - - - - - - - - - - - - ",
"i i i - - - - - - - - - - - - - - - - - - - - - - - - - - - - - - - - - - - - - - - - - - - - - - - - - - - - - - - - - - - - - - - - - - - - - - - - - - - - - ",
"i i - - - - - - - - - - - - - - - - - - - - - - - - - - - - - - - - - - - - - - - - - - - - - - - - - - - - - - - - - - - - - - - - - - - - - - - - - - - - - - ",
"i - - - - - - - - - - - - - - - - - - - - - - - - - - - - - - - - - - - - - - - - - - - - - - - - - - - - - - - - - - - - - - - - - - - - - - - - - - - - - - - "};
