/* XPM */
static const char * colon_xpm[] = {
"16 16 4 1",
" 	c None",
".	c #2C1D37",
"+	c #2D1D37",
"@	c #2E1D38",
"                ",
"                ",
"      ++++      ",
"     @++++++    ",
"     +++++++    ",
"     +++++++    ",
"     @++++++    ",
"      +++.      ",
"                ",
"      ++++      ",
"     @++++++    ",
"     +++++++    ",
"     ++++++.    ",
"     @++++++    ",
"      +++.      ",
"                "};

