/* XPM */
static const char * handCursor_xpm[] = {
"16 16 5 1",
" 	c none",
".	c #000000",
"+	c #FFFFFF",
"@	c #B3B3B3",
"#	c #757575",
" ..     ...     ",
".++.  ..@++.    ",
".+++..@+.+++.   ",
".@++++.+++++.   ",
" .@+++++++#++.  ",
"  .@++++#++#+.  ",
"  ..@++++#+++.  ",
"  .##@+++++++.. ",
"  .#@@++++++.++.",
"   .@@++++++++@.",
"    .@@@@@.++@. ",
"     .....@+@.  ",
"        .#@@.   ",
"        .##.    ",
"         ..     ",
"                "};
